<?xml version="1.0" encoding="UTF-8"?>
<svg id="Layer_1" data-name="Layer 1" xmlns="http://www.w3.org/2000/svg" viewBox="0 0 114.82 100.69">
  <defs>
    <style>
      .cls-1 {
        fill: #79634b;
        stroke: #231f20;
        stroke-miterlimit: 10;
        stroke-width: .8px;
      }
    </style>
  </defs>
  <path class="cls-1" d="m51.95,32.83c-6.71-.52-13.41-1.04-20.12-1.57-1-.08-1.99-.14-2.88.05-.57.43-1.07.91-1.54,1.4-.2.25-.41.51-.61.76-.93,1.19-1.76,2.43-2.66,3.64.07.24.47.15.98-.14.74-.41,1.36-.99,2.08-1.43,1.64-1.02,3.03-1.62,5.11-1.57,2.18.05,4.36.16,6.53.33,4.34.35,8.65.94,12.89,1.78.13.03.27.05.41.08-.1-1.11-.18-2.23-.19-3.34Z"/>
  <path class="cls-1" d="m65.04,33c6.71-.52,13.41-1.04,20.12-1.57,1-.08,1.99-.14,2.88.05.57.43,1.07.91,1.54,1.4.2.25.41.51.61.76.93,1.19,1.76,2.43,2.66,3.64-.07.24-.47.15-.98-.14-.74-.41-1.36-.99-2.08-1.43-1.64-1.02-3.03-1.62-5.11-1.57-2.18.05-4.36.16-6.53.33-4.34.35-8.65.94-12.89,1.78-.13.03-.27.05-.41.08.1-1.11.18-2.23.19-3.34Z"/>
</svg>