<?xml version="1.0" encoding="UTF-8"?>
<svg id="Layer_1" data-name="Layer 1" xmlns="http://www.w3.org/2000/svg" viewBox="0 0 202.86 188.21">
  <defs>
    <style>
      .cls-1 {
        fill: #79634b;
        stroke: #231f20;
        stroke-miterlimit: 10;
        stroke-width: .8px;
      }
    </style>
  </defs>
  <path class="cls-1" d="m95.52,51.6c-6.7-.5-13.4-1-20.1-1.6-1-.1-2-.1-2.9.1-.6.4-1.1.9-1.5,1.4-.2.3-.4.5-.6.8-.9,1.2-1.8,2.4-2.7,3.6.1.2.5.2,1-.1.7-.4,1.4-1,2.1-1.4,1.6-1,3-1.6,5.1-1.6,2.2.1,4.4.2,6.5.3,4.3.3,8.7.9,12.9,1.8.1,0,.3.1.4.1-.2-1.1-.2-2.2-.2-3.4Z"/>
  <path class="cls-1" d="m108.52,51.8c6.7-.5,13.4-1,20.1-1.6,1-.1,2-.1,2.9.1.6.4,1.1.9,1.5,1.4.2.3.4.5.6.8.9,1.2,1.8,2.4,2.7,3.6-.1.2-.5.2-1-.1-.7-.4-1.4-1-2.1-1.4-1.6-1-3-1.6-5.1-1.6-2.2.1-4.4.2-6.5.3-4.3.3-8.7.9-12.9,1.8-.1,0-.3.1-.4.1.2-1.2.2-2.3.2-3.4Z"/>
</svg>