<?xml version="1.0" encoding="UTF-8"?>
<svg id="Layer_1" data-name="Layer 1" xmlns="http://www.w3.org/2000/svg" viewBox="0 0 202.86 188.21">
  <defs>
    <style>
      .cls-1 {
        fill: #79634b;
        stroke: #231f20;
        stroke-miterlimit: 10;
        stroke-width: .8px;
      }
    </style>
  </defs>
  <path class="cls-1" d="m71.02,52.7c-.2.1-.5.3-.7.4-1.3.9-2.2,2.1-3.1,3.4.5-.7,1.4-.9,2.2-1.2.9-.3,1.7-.6,2.6-.8-.3-.6-.7-1.2-1-1.8Z"/>
  <path class="cls-1" d="m93.02,52.5c-4-2.6-9.6-2.7-14.3-2.2-1.2.1-2.5.3-3.7.7-.9.3-1.9.6-2.7,1l.3.6c.3.5.6,1,.8,1.5,5.6-1.4,11.3-1.7,16.8.3.7.3,1.5.6,2.2.6.4.1,1.7.1,2-.3.6-.8-.9-1.9-1.4-2.2Z"/>
  <path class="cls-1" d="m128.62,50.9c-1.2-.3-2.5-.6-3.7-.7-4.6-.4-10.2-.4-14.3,2.3-.5.3-2,1.5-1.5,2.2.3.5,1.5.4,2,.3.8-.1,1.5-.4,2.2-.6,5.8-2.1,11.9-1.7,17.7,0,1.1.3,2.1.6,3.2,1,.8.3,1.7.5,2.2,1.2-.9-1.3-1.8-2.5-3.1-3.4-1.4-1.1-3-1.8-4.7-2.3Z"/>
</svg>