<?xml version="1.0" encoding="UTF-8"?>
<svg id="Layer_1" data-name="Layer 1" xmlns="http://www.w3.org/2000/svg" viewBox="0 0 114.82 100.69">
  <defs>
    <style>
      .cls-1 {
        fill: #79634b;
        stroke: #231f20;
        stroke-miterlimit: 10;
        stroke-width: .8px;
      }
    </style>
  </defs>
  <path class="cls-1" d="m31.55,32.14c1.22-.34,2.46-.55,3.69-.68,4.65-.49,10.21-.45,14.25,2.2.5.33,1.96,1.48,1.53,2.24-.27.48-1.54.39-1.98.34-.78-.09-1.51-.38-2.25-.65-5.81-2.12-11.87-1.68-17.73-.03-1.06.3-2.12.63-3.17.98-.78.26-1.66.46-2.16,1.17.91-1.29,1.82-2.46,3.11-3.4,1.4-1.02,3.02-1.72,4.71-2.18Z"/>
  <path class="cls-1" d="m85.09,32.14c-1.22-.34-2.46-.55-3.69-.68-4.65-.49-10.21-.45-14.25,2.2-.5.33-1.96,1.48-1.53,2.24.27.48,1.54.39,1.98.34.78-.09,1.51-.38,2.25-.65,5.81-2.12,11.87-1.68,17.73-.03,1.06.3,2.12.63,3.17.98.78.26,1.66.46,2.16,1.17-.91-1.29-1.82-2.46-3.11-3.4-1.4-1.02-3.02-1.72-4.71-2.18Z"/>
</svg>