<?xml version="1.0" encoding="UTF-8"?>
<svg id="Layer_2" data-name="Layer 2" xmlns="http://www.w3.org/2000/svg" viewBox="0 0 69.99 15.95">
  <defs>
    <style>
      .cls-1 {
        fill: #231f20;
        stroke: #231f20;
        stroke-miterlimit: 10;
        stroke-width: .77px;
      }
    </style>
  </defs>
  <g id="Layer_1-2" data-name="Layer 1">
    <g>
      <path class="cls-1" d="m.41,4.28c-.04-.31-.06-.64.1-.91.12-.2.33-.33.53-.44C4.33,1.09,8.2.64,11.97.47c-2.72,1.23-5.08,3.26-6.71,5.76-1.71,2.62-2.22,5.34-2.6,8.37-.72-1.5-1.02-3.41-1.37-5.04-.38-1.74-.67-3.5-.88-5.28Z"/>
      <path class="cls-1" d="m69.58,4.28c.04-.31.06-.64-.1-.91-.12-.2-.33-.33-.53-.44-3.29-1.84-7.16-2.3-10.93-2.47,2.72,1.23,5.08,3.26,6.71,5.76,1.71,2.62,2.22,5.34,2.6,8.37.72-1.5,1.02-3.41,1.37-5.04.38-1.74.67-3.5.88-5.28Z"/>
    </g>
  </g>
</svg>