<?xml version="1.0" encoding="UTF-8"?>
<svg id="Layer_1" data-name="Layer 1" xmlns="http://www.w3.org/2000/svg" viewBox="0 0 202.86 188.21">
  <defs>
    <style>
      .cls-1 {
        stroke-width: 1.06px;
      }

      .cls-1, .cls-2, .cls-3, .cls-4, .cls-5, .cls-6, .cls-7, .cls-8 {
        stroke-miterlimit: 10;
      }

      .cls-1, .cls-2, .cls-4, .cls-5, .cls-6, .cls-7 {
        stroke: #231f20;
      }

      .cls-1, .cls-5 {
        fill: none;
      }

      .cls-2, .cls-9 {
        fill: #e4b9a1;
      }

      .cls-3 {
        stroke: #000;
      }

      .cls-3, .cls-10 {
        fill: #8e634f;
      }

      .cls-4 {
        fill: #79634b;
        stroke-width: .8px;
      }

      .cls-6, .cls-8 {
        stroke-width: .77px;
      }

      .cls-6, .cls-11 {
        fill: #fff;
      }

      .cls-7 {
        stroke-width: .77px;
      }

      .cls-7, .cls-12 {
        fill: #231f20;
      }

      .cls-8 {
        fill: #709a7a;
        stroke: #437650;
      }

      .cls-12, .cls-13, .cls-10, .cls-11, .cls-9, .cls-14 {
        stroke-width: 0px;
      }

      .cls-13 {
        fill: #a47256;
      }

      .cls-14 {
        fill: #fbd9c1;
      }
    </style>
  </defs>
  <g>
    <g>
      <ellipse class="cls-13" cx="54.13" cy="74.69" rx="8" ry="12.8" transform="translate(-13.5 11.96) rotate(-11.22)"/>
      <ellipse class="cls-13" cx="148.93" cy="74.65" rx="12.8" ry="8" transform="translate(46.72 206.21) rotate(-78.78)"/>
    </g>
    <ellipse class="cls-10" cx="55.03" cy="75.48" rx="5.2" ry="8.3" transform="translate(-13.64 12.15) rotate(-11.22)"/>
    <ellipse class="cls-10" cx="148.54" cy="75.31" rx="8.3" ry="5.2" transform="translate(45.76 206.36) rotate(-78.78)"/>
    <circle class="cls-13" cx="101.82" cy="69.29" r="47.1"/>
    <path class="cls-3" d="m110.52,87.29h0c0-3.4-3.8-6.2-8.6-6.2s-8.6,2.8-8.6,6.2h17.2Z"/>
    <ellipse class="cls-10" cx="101.92" cy="86.59" rx="8" ry="3.3"/>
  </g>
  <g>
    <path class="cls-7" d="m66.85,61.54c-.04-.31-.06-.64.1-.91.12-.2.33-.33.53-.44,3.29-1.84,7.16-2.3,10.93-2.47-2.72,1.23-5.08,3.26-6.71,5.76-1.71,2.62-2.22,5.34-2.6,8.37-.72-1.5-1.02-3.41-1.37-5.04-.38-1.74-.67-3.5-.88-5.28Z"/>
    <path class="cls-7" d="m136.02,61.54c.04-.31.06-.64-.1-.91-.12-.2-.33-.33-.53-.44-3.29-1.84-7.16-2.3-10.93-2.47,2.72,1.23,5.08,3.26,6.71,5.76,1.71,2.62,2.22,5.34,2.6,8.37.72-1.5,1.02-3.41,1.37-5.04.38-1.74.67-3.5.88-5.28Z"/>
  </g>
  <g>
    <path class="cls-5" d="m69.44,65.43c-.9.22-1.9.05-2.63-.51-.59-.45-.97-1.12-1.34-1.77"/>
    <path class="cls-5" d="m70.43,63.45c-.58.05-1.17-.22-1.59-.62s-.71-.93-.94-1.47"/>
    <path class="cls-1" d="m71.97,61.34c-.41.04-.83-.13-1.17-.43s-.59-.7-.79-1.14"/>
    <path class="cls-5" d="m133.43,65.34c.9.22,1.9.05,2.63-.51.59-.45.97-1.12,1.34-1.77"/>
    <path class="cls-5" d="m132.44,63.35c.58.05,1.17-.22,1.59-.62s.71-.93.94-1.47"/>
    <path class="cls-1" d="m130.9,61.25c.41.04.83-.13,1.17-.43s.59-.7.79-1.14"/>
  </g>
  <g>
    <path class="cls-4" d="m75.12,50.9c1.2-.3,2.5-.6,3.7-.7,4.6-.5,10.2-.4,14.3,2.2.5.3,2,1.5,1.5,2.2-.3.5-1.5.4-2,.3-.8-.1-1.5-.4-2.2-.6-5.8-2.1-11.9-1.7-17.7,0-1.1.3-2.1.6-3.2,1-.8.3-1.7.5-2.2,1.2.9-1.3,1.8-2.5,3.1-3.4,1.3-1,3-1.7,4.7-2.2Z"/>
    <path class="cls-4" d="m128.62,50.9c-1.2-.3-2.5-.6-3.7-.7-4.6-.4-10.2-.4-14.3,2.3-.5.3-2,1.5-1.5,2.2.3.5,1.5.4,2,.3.8-.1,1.5-.4,2.2-.6,5.8-2.1,11.9-1.7,17.7,0,1.1.3,2.1.6,3.2,1,.8.3,1.7.5,2.2,1.2-.9-1.3-1.8-2.5-3.1-3.4-1.4-1.1-3-1.8-4.7-2.3Z"/>
  </g>
  <g>
    <circle class="cls-6" cx="80.95" cy="69.31" r="12"/>
    <circle class="cls-6" cx="122.35" cy="69.31" r="12"/>
    <circle class="cls-8" cx="82.25" cy="68.51" r="9.5"/>
    <circle class="cls-12" cx="82.25" cy="68.51" r="6.8"/>
    <circle class="cls-8" cx="121.35" cy="68.51" r="9.5"/>
    <circle class="cls-12" cx="121.35" cy="68.51" r="6.8"/>
    <circle class="cls-11" cx="76.25" cy="64.21" r="1.6"/>
    <circle class="cls-11" cx="117.75" cy="64.21" r="1.6"/>
  </g>
  <g>
    <path class="cls-4" d="m71.02,52.7c-.2.1-.5.3-.7.4-1.3.9-2.2,2.1-3.1,3.4.5-.7,1.4-.9,2.2-1.2.9-.3,1.7-.6,2.6-.8-.3-.6-.7-1.2-1-1.8Z"/>
    <path class="cls-4" d="m93.02,52.5c-4-2.6-9.6-2.7-14.3-2.2-1.2.1-2.5.3-3.7.7-.9.3-1.9.6-2.7,1l.3.6c.3.5.6,1,.8,1.5,5.6-1.4,11.3-1.7,16.8.3.7.3,1.5.6,2.2.6.4.1,1.7.1,2-.3.6-.8-.9-1.9-1.4-2.2Z"/>
    <path class="cls-4" d="m128.62,50.9c-1.2-.3-2.5-.6-3.7-.7-4.6-.4-10.2-.4-14.3,2.3-.5.3-2,1.5-1.5,2.2.3.5,1.5.4,2,.3.8-.1,1.5-.4,2.2-.6,5.8-2.1,11.9-1.7,17.7,0,1.1.3,2.1.6,3.2,1,.8.3,1.7.5,2.2,1.2-.9-1.3-1.8-2.5-3.1-3.4-1.4-1.1-3-1.8-4.7-2.3Z"/>
  </g>
  <g>
    <path class="cls-4" d="m95.52,51.6c-6.7-.5-13.4-1-20.1-1.6-1-.1-2-.1-2.9.1-.6.4-1.1.9-1.5,1.4-.2.3-.4.5-.6.8-.9,1.2-1.8,2.4-2.7,3.6.1.2.5.2,1-.1.7-.4,1.4-1,2.1-1.4,1.6-1,3-1.6,5.1-1.6,2.2.1,4.4.2,6.5.3,4.3.3,8.7.9,12.9,1.8.1,0,.3.1.4.1-.2-1.1-.2-2.2-.2-3.4Z"/>
    <path class="cls-4" d="m108.52,51.8c6.7-.5,13.4-1,20.1-1.6,1-.1,2-.1,2.9.1.6.4,1.1.9,1.5,1.4.2.3.4.5.6.8.9,1.2,1.8,2.4,2.7,3.6-.1.2-.5.2-1-.1-.7-.4-1.4-1-2.1-1.4-1.6-1-3-1.6-5.1-1.6-2.2.1-4.4.2-6.5.3-4.3.3-8.7.9-12.9,1.8-.1,0-.3.1-.4.1.2-1.2.2-2.3.2-3.4Z"/>
  </g>
  <g>
    <g>
      <ellipse class="cls-14" cx="54.06" cy="74.71" rx="8" ry="12.8" transform="translate(-13.5 11.95) rotate(-11.22)"/>
      <ellipse class="cls-14" cx="148.81" cy="74.73" rx="12.8" ry="8" transform="translate(46.55 206.16) rotate(-78.78)"/>
    </g>
    <ellipse class="cls-9" cx="54.96" cy="75.5" rx="5.2" ry="8.3" transform="translate(-13.64 12.14) rotate(-11.22)"/>
    <ellipse class="cls-9" cx="148.43" cy="75.3" rx="8.3" ry="5.2" transform="translate(45.69 206.24) rotate(-78.78)"/>
    <circle class="cls-14" cx="101.65" cy="69.31" r="47.1"/>
    <g>
      <path class="cls-2" d="m110.45,86.61h0c0-3.1-3.8-5.5-8.6-5.5s-8.6,2.5-8.6,5.5h17.2Z"/>
      <ellipse class="cls-9" cx="101.85" cy="86.41" rx="8.1" ry="3.3"/>
    </g>
  </g>
</svg>