<?xml version="1.0" encoding="UTF-8"?>
<svg id="Layer_1" data-name="Layer 1" xmlns="http://www.w3.org/2000/svg" viewBox="0 0 202.86 188.21">
  <defs>
    <style>
      .cls-1 {
        fill: #ac3c2d;
        stroke-width: 0px;
      }
    </style>
  </defs>
  <path class="cls-1" d="m56.46,80.47c-2.73,0-4.27-2.98-5.97-5.11-2.2-2.77-5.59-4.57-9.11-4.85,0-1.11.01-2.22.02-3.33-.71-.18-1.42-.37-2.13-.55-.17-1.84,0-3.71.52-5.49-1.01-1.51-2.96-2.31-4.74-1.94-1.93-2.49-2.08-6.22-.35-8.86-2.07-1.96-.58-6.18,2.27-6.4-1.98-3.05-3.41-7.29-1.13-10.11.78-.97,1.89-1.6,2.97-2.21,1.66-.94,3.31-1.87,4.97-2.81-1.81-2.11-2.09-5.39-.65-7.77s4.47-3.67,7.18-3.05c-1.96.2-3.61-2.19-2.82-3.98s3.56-2.23,4.94-.83.97,4.07-.72,5.08l2.21,1.33c.86-1.03.63-2.55.97-3.85.57-2.15,2.77-3.55,4.98-3.87s4.43.22,6.59.76c1.65-.91,3.29-1.82,4.94-2.73-.72-.45-1.45-.91-2.17-1.36-.3-1.21.37-2.58,1.51-3.08.6-.26,1.27-.3,1.92-.33,2.97-.15,5.95-.3,8.92-.45,1.87-3.52,6.82-4.98,10.3-3.05,2.02,1.12,3.97,3.25,6.17,2.56.94-.29,1.65-1.07,2.57-1.41,1.9-.7,3.92.6,5.94.81,1.76.18,3.53-.5,5.28-.3s3.57,2.03,2.7,3.57c1.31-.03,2.62-.05,3.93-.08,0-1.05.02-2.09.02-3.14,1.38-1.14,3.34-1.76,4.99-1.08s2.59,2.98,1.5,4.39c2.82-1.42,6.43-1.07,8.94.85,1.74-1.72,4.5-2.53,6.74-1.52s3.45,4.05,2.14,6.11c1.51-.65,3.33.43,4.05,1.91s.63,3.22.48,4.86c2.39.04,4.85.37,6.91,1.59s3.61,3.5,3.4,5.88c1.3-1.2,3.43-1.39,4.92-.44l-.02,5.51c-2.64-.49-5.16-1.66-7.23-3.38l-.55,2.38c2.6-.12,5.22,1.35,6.46,3.64s1.06,5.28-.45,7.4c2.77-.67,5.91,1.13,6.74,3.86s-.78,5.97-3.45,6.96c2.21,1.51,3.14,4.65,2.11,7.13s-3.92,4.02-6.56,3.51c.95,1.27.78,3.23-.36,4.32s-3.11,1.17-4.33.16c-.84,5.08-4.21,9.68-8.81,12.02l-1.66-19.72c-2.61,1.04-5.89,0-7.42-2.36s-1.17-5.77.84-7.74c-1.09-1.44-2.69-2.49-4.45-2.92l.21,2.13c-1.74,2.34-6.01,1.9-7.24-.75-2.32,1.76-6.18.77-7.36-1.89-.26,3.21-2.83,6.08-5.98,6.72s-6.63-1.04-8.11-3.9c-3.7.18-7.37.99-10.8,2.41-1.84.76-4.03,1.66-5.68.55-1.3-.88-1.75-2.76-3.18-3.39-.95-.42-2.08-.15-3.07-.48-1.26-.42-1.99-1.69-2.83-2.72s-2.23-1.95-3.43-1.37c.75,2.93-1.71,5.91-4.61,6.79s-6.01.18-8.92-.63c1.82,1.61,1.75,4.77.07,6.53s-4.53,2.11-6.75,1.12c-.21-.1.43,10.39.7,11.42,1.12,4.27,1.51,6.62.02,10.96Z"/>
</svg>