<?xml version="1.0" encoding="UTF-8"?>
<svg id="Layer_1" data-name="Layer 1" xmlns="http://www.w3.org/2000/svg" viewBox="0 0 202.86 188.21">
  <defs>
    <style>
      .cls-1 {
        fill: #d5b89b;
        stroke-width: 0px;
      }
    </style>
  </defs>
  <path class="cls-1" d="m56.01,86.47l-2.23-11.43-.95-8.11s-2.33-3.78-2.4-3.89c-1.73-2.8-3.9-4.28-4.64-7.75-.5-2.32-.66-4.73-1.55-6.92-1.96-4.83-7.28-8.3-7.43-13.51-.23-8.05,9.42-10.71,15.04-13.62,5.56-2.87,10.17-7.26,15.29-10.85,7.02-4.92,14.13-5.51,22.33-5.84,10.02-.41,19.58-1.92,29.51.58,10.51,2.64,20.54,9.93,23.3,20.41-.12-.46,8.96,3.62,9.91,4.54,3.75,3.66,4.45,9.24,3.29,14.14-.86,3.59-2.46,6.96-3.58,10.48-.93,2.92-1.53,5.94-2.12,8.95-1.36,6.85-2.63,13.7-3.78,20.58,0,0-.14,1.31-.14,1.31-.73-5.4-.5-11.51-3.84-15.89-3.85-5.04-1.02-12.41-2.66-18.54-1.26-4.68-5.4-8.46-10.18-9.28-1.7-.29-3.43-.24-5.15-.15-18.42.93-36.04,7.28-54.6,6.65-2.92-.1-6.07-.32-7.11,3.07-.93,3.52-.82,7.27-1.82,10.69-.32,1.08-.87,2.08-1.36,3.09-2.52,5.16-5.24,15.5-3.13,21.3Z"/>
</svg>