<?xml version="1.0" encoding="UTF-8"?>
<svg id="Layer_1" data-name="Layer 1" xmlns="http://www.w3.org/2000/svg" viewBox="0 0 202.86 188.21">
  <defs>
    <style>
      .cls-1 {
        fill: #745848;
        stroke-width: 0px;
      }
    </style>
  </defs>
  <path class="cls-1" d="m173.59,125.67s-1.98-10.19-1.98-10.19c-2.77-9.91-4.68-20.07-5.33-30.33-.87-13.72,3.24-29.37-1.01-42.62-2.54-7.92-9.11-16.12-15.91-20.98-8.61-6.16-18.42-10.76-28.78-13.19-5.2-1.22-10.55-1.89-15.9-1.91-11.3-.04-26.55-1.11-32.73,10.34-4.59,0-9.2-.18-13.41,1.92-2.93,1.46-5.47,3.6-7.74,5.93-8.89,9.12-7.1,18.54-7.08,30.18,0,17.95.03,35.91.03,53.86,0,5.67,0,11.35,0,17.02,0,.06,6.84,2.13,7.43,2.3,3.08.88,6.27,1.35,9.47,1.57,6.34.45,12.7-.07,19.03-.32,5.72-.22,70.37.21,70.42.81l-.99-14.57,6.43,14.57,18.06-4.38Zm-21.61-41.75c-1.44,1.56-3.38,2.68-5.49,2.8-.8.05-1.65-.04-2.35.36-.68.38-1.06,1.14-1.4,1.84-1.66,3.4-3.55,6.7-5.85,9.71-9.74,12.77-26.85,19.29-42.73,16.83-15.88-2.46-30.01-13.55-36.74-28.14-2.22.67-4.7-.14-6.47-1.63s-2.95-3.58-3.86-5.72c-1.22-2.85-2.06-5.95-1.7-9.02.58-4.9,4.38-8.31,9.24-8.6-.54,4.49-.33,9.07.6,13.5,2.25-13.51,17.77-22.32,18.64-35.99.17-2.69-.14-5.75,1.71-7.71,3.21.62,5.29,3.61,7.47,6.04,7.35,8.16,18.62,11.45,29.43,13.41,7.59,1.38,15.26,2.28,22.96,2.7,1.15.06,2.35.13,3.38.65,1.12.56,1.91,1.6,2.58,2.65,2.82,4.48,3.92,10.02,3.03,15.24,2.72-2.63,4.69-6.02,5.63-9.68,2.46.44,4.37,2.56,5.17,4.92s.65,4.95.25,7.41c-.42,2.56-1.12,5.14-2.6,7.28-.28.4-.58.79-.92,1.15Z"/>
</svg>