<?xml version="1.0" encoding="UTF-8"?>
<svg id="Layer_1" data-name="Layer 1" xmlns="http://www.w3.org/2000/svg" viewBox="0 0 202.86 188.21">
  <defs>
    <style>
      .cls-1 {
        fill: #745848;
        stroke-width: 0px;
      }
    </style>
  </defs>
  <path class="cls-1" d="m192.29,119c-1.51-3.61-3.1-7.27-3.71-10.98-1.22-7.4,1.49-15.37-1.43-22.28-2.38-5.65-8.16-9.52-9.88-15.41-1.74-6,1.16-12.79-1.28-18.55-2.76-6.51-11.04-8.83-15.04-14.66-2.8-4.07-3.15-9.3-4.95-13.9-5.05-12.92-21.08-18.68-34.84-16.61-5.11.77-10.11,2.38-15.27,2.45-5.18.06-10.29-1.44-15.47-1.31s-10.93,2.6-12.38,7.55c-10.55-3.34-28.72-1.66-28.72,12.88,0,0,0,6.7,0,6.7-7.07,6.14-18.17,11.18-20.34,21.08-.92,4.16,0,8.6-1.16,12.71-2.12,7.57-9.94,11.65-15.15,16.91-1.54,1.56-3.18,3.32-3.28,5.5-.09,1.97,1.1,3.73,2.02,5.48,3.88,7.37,3.1,16.95-1.94,23.59-1.83,2.42-4.23,4.59-4.99,7.53-1.91,7.45,7.33,12.76,10.1,19.94.84,2.18,1.06,4.55,1.58,6.83,2.27,10.12,10.87,18.55,21.07,20.64,9.02,1.86,18.53-.91,27.54,1.02,8.54,1.83,16.59,7.81,25.15,6.09,7.38-1.49,13.03-8.49,20.55-8.85,5.83-.28,11.07,3.56,16.85,4.42,8.35,1.24,16.19-3.78,24.33-6.02,5.93-1.63,12.18-1.79,18.15-3.25s12.03-4.63,14.61-10.19c1.69-3.66,1.69-7.92,3.37-11.58,1.8-3.92,5.4-6.85,6.95-10.88,2.13-5.55-.07-11.15-2.46-16.85Zm-37.95-42.42c-.54,2.4-1.38,4.58-2.24,5.99-2.44,4.01-5.8,3.13-8.93,5.86-.79.69-1.26,1.66-1.74,2.59-7.38,14.28-22.73,24.13-38.84,24.92-18.18.89-33.96-9.26-43.18-24.35l-2.21-4.74-1.39.5-1.6.06-1.65-.45c-6.55-1.8-8.1-13.09-6.66-18.4.69-2.53,7.35-9.58,8.87-4.17.96,3.41,1.21,7.06,2.06,10.39.16-.96.3-1.94.41-2.91,0,0,.48-2.09.48-2.09,1.32-2.67,1.37-5.47,2.58-8.2,4.08-.26,8.03-2.19,10.75-5.23.46-.52.9-1.08,1.06-1.75.15-.6.07-1.24,0-1.86-.7-6.13-.28-12.73,3.22-17.82,2.23-3.25,11.14,3.78,13.07,4.71,3.47,1.66,7.47,1.6,11.32,1.54,3.16-.06,6.68.03,8.96,2.22,1.12,1.07,1.78,2.51,2.57,3.84,3.78,6.31,10.79,10.09,17.91,12.03,3.57.97,7.35,1.62,10.37,3.75,3.15,2.23,5.1,6.05,5.07,9.89,1.01-1.58.7-3.62.69-5.49s.58-4.11,2.37-4.68c1.22-.39,2.54.18,3.57.94,4.17,3.1,4.14,8.31,3.11,12.9Z"/>
</svg>