<?xml version="1.0" encoding="UTF-8"?>
<svg id="Layer_1" data-name="Layer 1" xmlns="http://www.w3.org/2000/svg" viewBox="0 0 202.86 188.21">
  <defs>
    <style>
      .cls-1 {
        stroke-width: 1.06px;
      }

      .cls-1, .cls-2 {
        fill: none;
        stroke: #231f20;
        stroke-miterlimit: 10;
      }
    </style>
  </defs>
  <path class="cls-2" d="m69.44,65.43c-.9.22-1.9.05-2.63-.51-.59-.45-.97-1.12-1.34-1.77"/>
  <path class="cls-2" d="m70.43,63.45c-.58.05-1.17-.22-1.59-.62s-.71-.93-.94-1.47"/>
  <path class="cls-1" d="m71.97,61.34c-.41.04-.83-.13-1.17-.43s-.59-.7-.79-1.14"/>
  <path class="cls-2" d="m133.43,65.34c.9.22,1.9.05,2.63-.51.59-.45.97-1.12,1.34-1.77"/>
  <path class="cls-2" d="m132.44,63.35c.58.05,1.17-.22,1.59-.62s.71-.93.94-1.47"/>
  <path class="cls-1" d="m130.9,61.25c.41.04.83-.13,1.17-.43s.59-.7.79-1.14"/>
</svg>