<?xml version="1.0" encoding="UTF-8"?>
<svg id="Layer_1" data-name="Layer 1" xmlns="http://www.w3.org/2000/svg" viewBox="0 0 202.86 188.21">
  <defs>
    <style>
      .cls-1 {
        fill: none;
        stroke: #231f20;
        stroke-miterlimit: 10;
        stroke-width: .53px;
      }

      .cls-2 {
        fill: #b56e4c;
        stroke-width: 0px;
      }
    </style>
  </defs>
  <g>
    <path class="cls-2" d="m110.48,97.71c-.4.2-.9.4-1.4.5-.2.1-.4.3-.5.4-.6.3-1.2.5-1.8.7-1.4.3-2.8.5-4.2.6-1.5.1-3.1.1-4.6,0-1.4-.1-2.7-.6-4.1-.9-.3,0-.5,0-.8-.1-.3,0-.5-.1-.8-.2-.5-.1-.9-.3-1.3-.6-.2.5-.4,1.1-.4,1.6,0,3.4,4.6,6.2,10.3,6.2s10.3-2.8,10.3-6.2c0-.6-.3-1.3-.7-2Z"/>
    <ellipse class="cls-2" cx="96.28" cy="99.01" rx="5.5" ry="3.1"/>
    <ellipse class="cls-2" cx="105.58" cy="99.01" rx="5.5" ry="3.1"/>
  </g>
  <path class="cls-1" d="m113.28,97.51c-4.3,4.2-20.3,4.2-24.9,0"/>
</svg>