<?xml version="1.0" encoding="UTF-8"?>
<svg id="Layer_1" data-name="Layer 1" xmlns="http://www.w3.org/2000/svg" viewBox="0 0 114.82 100.69">
  <defs>
    <style>
      .cls-1 {
        fill: none;
        stroke: #231f20;
        stroke-miterlimit: 10;
        stroke-width: .53px;
      }

      .cls-2 {
        fill: #b56e4c;
        stroke-width: 0px;
      }
    </style>
  </defs>
  <g>
    <path class="cls-2" d="m67.22,79.4c-.44.22-.91.36-1.39.49-.19.13-.37.27-.53.36-.57.33-1.19.54-1.83.7-1.38.34-2.82.52-4.24.64-1.52.13-3.05.15-4.57.04-1.44-.1-2.74-.58-4.13-.9-.27,0-.53-.04-.79-.08-.26-.04-.52-.11-.77-.18-.46-.14-.92-.33-1.35-.56-.24.52-.37,1.06-.37,1.62,0,3.42,4.61,6.19,10.31,6.19s10.31-2.77,10.31-6.19c0-.75-.23-1.47-.64-2.13Z"/>
    <ellipse class="cls-2" cx="52.95" cy="80.7" rx="5.54" ry="3.1"/>
    <ellipse class="cls-2" cx="62.27" cy="80.7" rx="5.54" ry="3.1"/>
  </g>
  <path class="cls-1" d="m69.97,79.21c-4.32,4.24-20.34,4.22-24.87,0"/>
</svg>