<?xml version="1.0" encoding="UTF-8"?>
<svg id="Layer_2" data-name="Layer 2" xmlns="http://www.w3.org/2000/svg" viewBox="0 0 72.81 6.56">
  <defs>
    <style>
      .cls-1 {
        stroke-width: 1.06px;
      }

      .cls-1, .cls-2 {
        fill: none;
        stroke: #231f20;
        stroke-miterlimit: 10;
      }
    </style>
  </defs>
  <g id="Layer_1-2" data-name="Layer 1">
    <g>
      <path class="cls-2" d="m4.41,5.97c-.9.22-1.9.05-2.63-.51-.59-.45-.97-1.12-1.34-1.77"/>
      <path class="cls-2" d="m5.4,3.98c-.58.05-1.17-.22-1.59-.62s-.71-.93-.94-1.47"/>
      <path class="cls-1" d="m6.94,1.88c-.41.04-.83-.13-1.17-.43s-.59-.7-.79-1.14"/>
      <path class="cls-2" d="m68.4,5.87c.9.22,1.9.05,2.63-.51.59-.45.97-1.12,1.34-1.77"/>
      <path class="cls-2" d="m67.41,3.89c.58.05,1.17-.22,1.59-.62s.71-.93.94-1.47"/>
      <path class="cls-1" d="m65.87,1.78c.41.04.83-.13,1.17-.43s.59-.7.79-1.14"/>
    </g>
  </g>
</svg>